# WaveFront *.obj file (generated by Cheetah3D)

mtllib pedestal-cheetah.mtl

g Default
v -0.303183 0.000000 -0.303183
v 0.303183 0.000000 -0.303183
v 0.303183 0.000000 0.303183
v -0.303183 0.000000 0.303183
v -0.303183 0.209702 -0.303183
v 0.303183 0.209702 -0.303183
v 0.303183 0.209702 0.303183
v -0.303183 0.209702 0.303183
v -0.295604 0.214250 -0.295604
v 0.295604 0.214250 -0.295604
v 0.295604 0.214250 0.295604
v -0.295604 0.214250 0.295604
v -0.253989 0.256190 -0.253989
v 0.253989 0.256190 -0.253989
v 0.253989 0.256190 0.253989
v -0.253989 0.256190 0.253989
v -0.224356 0.281961 -0.224356
v 0.224356 0.281961 -0.224356
v 0.224356 0.281961 0.224356
v -0.224356 0.281961 0.224356
v -0.224356 0.843355 -0.224356
v 0.224356 0.843355 -0.224356
v 0.224356 0.843355 0.224356
v -0.224356 0.843355 0.224356
v -0.246084 0.848408 -0.246084
v 0.246084 0.848408 -0.246084
v 0.246084 0.848408 0.246084
v -0.246084 0.848408 0.246084
v -0.246084 0.909045 -0.246084
v 0.246084 0.909045 -0.246084
v 0.246084 0.909045 0.246084
v -0.246084 0.909045 0.246084
v -0.273876 0.941890 -0.273876
v 0.273876 0.941890 -0.273876
v 0.273876 0.941890 0.273876
v -0.273876 0.941890 0.273876
v -0.299646 0.949469 -0.299646
v 0.299646 0.949469 -0.299646
v 0.299646 0.949469 0.299646
v -0.299646 0.949469 0.299646
v -0.299646 1.000000 -0.299646
v 0.299646 1.000000 -0.299646
v 0.299646 1.000000 0.299646
v -0.299646 1.000000 0.299646
v -0.256011 0.909045 -0.256011
v -0.273876 0.929257 -0.273876
v 0.256011 0.909045 -0.256011
v 0.273876 0.929257 -0.273876
v 0.256011 0.909045 0.256011
v 0.273876 0.929257 0.273876
v -0.256011 0.909045 0.256011
v -0.273876 0.929257 0.273876
v -0.268643 0.916445 0.268643
v 0.268643 0.916445 0.268643
v -0.268643 0.916445 -0.268643
v 0.268643 0.916445 -0.268643
v -0.243052 0.266296 -0.243052
v -0.233405 0.279939 -0.233405
v 0.243052 0.266296 -0.243052
v 0.233405 0.279939 -0.233405
v 0.243052 0.266296 0.243052
v 0.233405 0.279939 0.233405
v -0.243052 0.266296 0.243052
v -0.233405 0.279939 0.233405
v -0.239434 0.274933 -0.239434
v -0.239434 0.274933 0.239434
v 0.239434 0.274933 -0.239434
v 0.239434 0.274933 0.239434
v -0.295266 0.221500 -0.295266
v -0.282978 0.239496 -0.282978
v 0.295266 0.221500 -0.295266
v 0.282978 0.239496 -0.282978
v 0.295266 0.221500 0.295266
v 0.282978 0.239496 0.282978
v -0.295266 0.221500 0.295266
v -0.282978 0.239496 0.282978
v 0.291195 0.230788 -0.291195
v -0.291195 0.230788 -0.291195
v -0.291195 0.230788 0.291195
v 0.291195 0.230788 0.291195
v -0.171299 0.335018 -0.224356
v 0.171299 0.335018 -0.224356
v 0.171299 0.335018 0.224356
v -0.171299 0.335018 0.224356
v -0.171299 0.790298 -0.224356
v 0.171299 0.790298 -0.224356
v 0.171299 0.790298 0.224356
v -0.171299 0.790298 0.224356
v -0.151086 0.355230 -0.204144
v 0.151086 0.355230 -0.204144
v 0.151086 0.355230 0.204144
v -0.151086 0.355230 0.204144
v -0.151086 0.770086 -0.204144
v 0.151086 0.770086 -0.204144
v 0.151086 0.770086 0.204144
v -0.151086 0.770086 0.204144

vt 0.065095 0.484973
vt 0.184973 0.484948
vt 0.184931 0.320116
vt 0.065064 0.320121
vt 0.499997 0.150443
vt 0.249997 0.150447
vt 0.249997 0.236904
vt 0.499999 0.236901
vt 0.000000 0.150447
vt -0.000000 0.236904
vt 0.999994 0.150419
vt 0.749997 0.150437
vt 0.750006 0.236897
vt 1.000000 0.236876
vt 0.503124 0.240545
vt 0.746881 0.240541
vt 0.753131 0.240541
vt 0.996876 0.240520
vt 0.003125 0.240548
vt 0.246872 0.240548
vt 0.253122 0.240549
vt 0.496874 0.240545
vt 0.282526 0.515294
vt 0.467540 0.515257
vt 0.467500 0.283808
vt 0.282498 0.283819
vt 0.782546 0.515256
vt 0.967525 0.515236
vt 0.967505 0.283790
vt 0.782511 0.283807
vt 0.023574 0.524498
vt 0.226504 0.524441
vt 0.217542 0.515248
vt 0.032531 0.515296
vt 0.273568 0.524495
vt 0.476501 0.524452
vt 0.523504 0.524440
vt 0.726415 0.524497
vt 0.717460 0.515295
vt 0.532464 0.515247
vt 0.773591 0.524454
vt 0.976483 0.524432
vt 0.523498 0.549434
vt 0.726406 0.549499
vt 0.773597 0.549451
vt 0.976483 0.549429
vt 0.023580 0.549503
vt 0.226514 0.549439
vt 0.273572 0.549498
vt 0.476510 0.549452
vt 0.251492 0.581626
vt 0.498607 0.581566
vt 0.487977 0.570493
vt 0.262116 0.570547
vt 0.501406 0.581537
vt 0.748477 0.581627
vt 0.737857 0.570548
vt 0.512034 0.570468
vt 0.751524 0.581567
vt 0.998564 0.581540
vt 0.987940 0.570468
vt 0.762145 0.570492
vt 0.001502 0.581633
vt 0.248611 0.581549
vt 0.237981 0.570477
vt 0.012125 0.570553
vt 0.001508 0.600071
vt 0.248619 0.599982
vt 0.251496 0.600063
vt 0.498614 0.600002
vt 0.501398 0.599966
vt 0.748468 0.600062
vt 0.751528 0.599996
vt 0.998565 0.599970
vt 0.248707 0.849493
vt 0.001597 0.849581
vt 0.235820 0.559564
vt 0.014280 0.559636
vt 0.012124 0.565344
vt 0.237979 0.565268
vt 0.230608 0.553530
vt 0.019487 0.553598
vt 0.985783 0.559556
vt 0.764300 0.559579
vt 0.762144 0.565284
vt 0.987940 0.565261
vt 0.980575 0.553521
vt 0.769506 0.553543
vt 0.485815 0.559579
vt 0.264272 0.559631
vt 0.262115 0.565338
vt 0.487975 0.565284
vt 0.480604 0.553543
vt 0.269480 0.553593
vt 0.735704 0.559632
vt 0.514194 0.559557
vt 0.512036 0.565260
vt 0.737859 0.565339
vt 0.730498 0.553594
vt 0.519405 0.553524
vt 0.974048 0.276708
vt 0.775967 0.276726
vt 0.778780 0.279985
vt 0.971235 0.279967
vt 0.975212 0.272563
vt 0.774802 0.272581
vt 0.724049 0.276733
vt 0.525956 0.276727
vt 0.528768 0.279986
vt 0.721236 0.279993
vt 0.725214 0.272587
vt 0.524791 0.272583
vt 0.224041 0.276727
vt 0.025956 0.276734
vt 0.028768 0.279994
vt 0.221228 0.279986
vt 0.225206 0.272583
vt 0.024790 0.272590
vt 0.474043 0.276727
vt 0.275954 0.276737
vt 0.278767 0.279996
vt 0.471231 0.279986
vt 0.475208 0.272584
vt 0.274789 0.272591
vt 0.520282 0.266444
vt 0.729724 0.266446
vt 0.770292 0.266442
vt 0.979721 0.266423
vt 0.020282 0.266450
vt 0.229715 0.266445
vt 0.270279 0.266451
vt 0.479717 0.266444
vt 0.032499 0.283817
vt 0.217498 0.283808
vt 0.532499 0.283808
vt 0.717505 0.283817
vt 0.745064 0.247715
vt 0.504942 0.247718
vt 0.508330 0.252654
vt 0.741676 0.252652
vt 0.746742 0.243534
vt 0.503263 0.243538
vt 0.995058 0.247694
vt 0.754950 0.247714
vt 0.758338 0.252650
vt 0.991671 0.252630
vt 0.996736 0.243513
vt 0.753271 0.243533
vt 0.495057 0.247718
vt 0.254939 0.247722
vt 0.258327 0.252659
vt 0.491668 0.252654
vt 0.496735 0.243538
vt 0.253261 0.243541
vt 0.245054 0.247721
vt 0.004943 0.247722
vt 0.008330 0.252658
vt 0.241667 0.252656
vt 0.246733 0.243540
vt 0.003264 0.243541
vt 0.052721 0.497224
vt 0.052690 0.307876
vt 0.197306 0.307870
vt 0.197348 0.497190
vt 0.699927 0.498575
vt 0.549995 0.498541
vt 0.550030 0.304518
vt 0.699972 0.304524
vt 0.563302 0.485376
vt 0.563336 0.317687
vt 0.686664 0.317692
vt 0.686620 0.485401

vn 0.000000 0.000000 1.000000
vn 1.000000 0.000000 0.000000
vn -1.000000 0.000000 0.000000
vn 0.276174 0.920574 -0.276173
vn -0.276174 0.920574 -0.276173
vn -0.276174 0.920574 0.276173
vn 0.276174 0.920574 0.276173
vn -0.114738 -0.986748 0.114738
vn 0.114738 -0.986747 0.114738
vn 0.114738 -0.986748 -0.114738
vn -0.114738 -0.986747 -0.114738
vn 0.000000 0.000000 -1.000000
vn 0.143977 -0.979051 0.143978
vn 0.143977 -0.979051 -0.143978
vn -0.143977 -0.979051 -0.143978
vn -0.143977 -0.979051 0.143978
vn 0.000000 1.000000 0.000000
vn -0.000000 -0.655092 0.755549
vn -0.000000 -0.192651 0.981267
vn 0.133238 -0.982087 0.133238
vn -0.133238 -0.982087 0.133238
vn -0.194843 -0.810960 0.551706
vn 0.194843 -0.810960 0.551706
vn -0.755549 -0.655092 -0.000000
vn -0.981267 -0.192651 -0.000000
vn -0.133238 -0.982087 -0.133238
vn -0.551706 -0.810960 -0.194843
vn -0.551706 -0.810960 0.194843
vn 0.755549 -0.655092 0.000000
vn 0.981267 -0.192651 0.000000
vn 0.133238 -0.982087 -0.133238
vn 0.551706 -0.810960 0.194843
vn 0.551706 -0.810960 -0.194843
vn 0.000000 -0.655092 -0.755549
vn 0.000000 -0.192651 -0.981267
vn 0.194843 -0.810960 -0.551706
vn -0.194843 -0.810960 -0.551706
vn 0.000000 -1.000000 0.000000
vn -0.803727 0.594998 0.000000
vn -0.299463 0.951061 -0.076187
vn -0.299463 0.951061 0.076187
vn -0.819185 0.573529 0.000000
vn -0.000000 0.594998 -0.803728
vn 0.076186 0.951061 -0.299464
vn -0.076186 0.951061 -0.299464
vn -0.000000 0.573529 -0.819185
vn 0.000000 0.594998 0.803728
vn -0.076186 0.951061 0.299464
vn 0.076186 0.951061 0.299464
vn 0.000000 0.573529 0.819185
vn 0.803727 0.594998 0.000000
vn 0.299463 0.951061 0.076187
vn 0.299463 0.951061 -0.076187
vn 0.819185 0.573529 0.000000
vn 0.000000 0.805544 -0.592536
vn -0.592537 0.805543 0.000000
vn 0.000000 0.805544 0.592536
vn 0.592537 0.805543 0.000000
vn -0.231898 0.944694 0.231898
vn -0.110313 0.987756 0.110314
vn 0.110313 0.987756 0.110314
vn 0.231898 0.944694 0.231898
vn 0.110313 0.987756 -0.110314
vn 0.231898 0.944694 -0.231898
vn -0.110313 0.987756 -0.110314
vn -0.231898 0.944694 -0.231898
vn 0.000000 0.551985 -0.833854
vn 0.000000 0.784778 -0.619778
vn 0.000000 0.227821 -0.973703
vn -0.833854 0.551985 -0.000000
vn -0.619778 0.784777 -0.000000
vn -0.973703 0.227822 -0.000000
vn 0.833854 0.551985 0.000000
vn 0.619778 0.784777 0.000000
vn 0.973703 0.227822 0.000000
vn -0.000000 0.551985 0.833854
vn 0.000000 0.784778 0.619778
vn -0.000000 0.227821 0.973703
vn 0.000000 0.046547 -0.998916
vn -0.998916 0.046548 0.000000
vn 0.000000 0.046547 0.998916
vn 0.998916 0.046548 0.000000
vn -0.180941 0.877235 0.444655
vn -0.179549 0.887821 0.423717
vn 0.179549 0.887821 0.423717
vn 0.180941 0.877235 0.444655
vn 0.444656 0.877235 0.180941
vn 0.423718 0.887821 0.179549
vn 0.423718 0.887821 -0.179549
vn 0.444656 0.877235 -0.180941
vn 0.180941 0.877235 -0.444655
vn 0.179549 0.887821 -0.423717
vn -0.179549 0.887821 -0.423717
vn -0.180941 0.877235 -0.444655
vn -0.444656 0.877235 -0.180941
vn -0.423718 0.887821 -0.179549
vn -0.423718 0.887821 0.179549
vn -0.444656 0.877235 0.180941
vn -0.707107 -0.000000 -0.707107
vn 0.000000 0.707107 -0.707107
vn 0.707107 0.000000 -0.707107
vn 0.000000 -0.707107 -0.707107
vn -0.000000 0.707107 0.707107
vn -0.707107 0.000000 0.707107
vn -0.000000 -0.707107 0.707107
vn 0.707107 -0.000000 0.707107

usemtl Material
f 92/4/1 91/3/1 95/2/1 96/1/1
f 6/8/2 7/7/2 3/6/2 2/5/2
f 7/7/1 8/10/1 4/9/1 3/6/1
f 8/14/3 5/13/3 1/12/3 4/11/3
f 6/8/4 5/13/5 9/16/5 10/15/4
f 5/13/5 8/14/6 12/18/6 9/17/5
f 8/10/6 7/7/7 11/20/7 12/19/6
f 7/7/7 6/8/4 10/22/4 11/21/7
f 19/26/2 18/25/2 22/24/2 23/23/2
f 17/30/3 20/29/3 24/28/3 21/27/3
f 24/34/8 23/33/9 27/32/9 28/31/8
f 23/23/9 22/24/10 26/36/10 27/35/9
f 22/40/10 21/39/11 25/38/11 26/37/10
f 21/27/11 24/28/8 28/42/8 25/41/11
f 26/37/12 25/38/12 29/44/12 30/43/12
f 25/41/3 28/42/3 32/46/3 29/45/3
f 28/31/1 27/32/1 31/48/1 32/47/1
f 27/35/2 26/36/2 30/50/2 31/49/2
f 35/54/13 34/53/14 38/52/14 39/51/13
f 34/58/14 33/57/15 37/56/15 38/55/14
f 33/62/15 36/61/16 40/60/16 37/59/15
f 36/66/16 35/65/13 39/64/13 40/63/16
f 40/63/1 39/64/1 43/68/1 44/67/1
f 39/51/2 38/52/2 42/70/2 43/69/2
f 38/55/12 37/56/12 41/72/12 42/71/12
f 37/59/3 40/60/3 44/74/3 41/73/3
f 41/76/17 44/67/17 43/68/17 42/75/17
f 50/80/19 52/79/19 53/78/18 54/77/18
f 54/77/23 53/78/22 51/82/21 49/81/20
f 52/86/25 46/85/25 55/84/24 53/83/24
f 53/83/28 55/84/27 45/88/26 51/87/21
f 48/92/30 50/91/30 54/90/29 56/89/29
f 56/89/33 54/90/32 49/94/20 47/93/31
f 46/98/35 48/97/35 56/96/34 55/95/34
f 55/95/37 56/96/36 47/100/31 45/99/26
f 31/48/38 49/81/20 51/82/21 32/47/38
f 30/50/38 47/93/31 49/94/20 31/49/38
f 29/44/38 45/99/26 47/100/31 30/43/38
f 32/46/38 51/87/21 45/88/26 29/45/38
f 50/80/19 35/65/1 36/66/1 52/79/19
f 48/92/30 34/53/2 35/54/2 50/91/30
f 46/98/35 33/57/12 34/58/12 48/97/35
f 52/86/25 36/61/3 33/62/3 46/85/25
f 64/104/41 58/103/40 65/102/39 66/101/39
f 66/101/39 65/102/39 57/106/42 63/105/42
f 58/110/45 60/109/44 67/108/43 65/107/43
f 65/107/43 67/108/43 59/112/46 57/111/46
f 62/116/49 64/115/48 66/114/47 68/113/47
f 68/113/47 66/114/47 63/118/50 61/117/50
f 60/122/53 62/121/52 68/120/51 67/119/51
f 67/119/51 68/120/51 61/124/54 59/123/54
f 13/126/55 57/111/46 59/112/46 14/125/55
f 16/128/56 63/105/42 57/106/42 13/127/56
f 15/130/57 61/117/50 63/118/50 16/129/57
f 14/132/58 59/123/54 61/124/54 15/131/58
f 62/116/62 19/134/61 20/133/60 64/115/59
f 60/122/64 18/25/63 19/26/61 62/121/62
f 58/110/66 17/136/65 18/135/63 60/109/64
f 64/104/59 20/29/60 17/30/65 58/103/66
f 70/140/68 72/139/68 77/138/67 78/137/67
f 78/137/67 77/138/67 71/142/69 69/141/69
f 76/146/71 70/145/71 78/144/70 79/143/70
f 79/143/70 78/144/70 69/148/72 75/147/72
f 72/152/74 74/151/74 80/150/73 77/149/73
f 77/149/73 80/150/73 73/154/75 71/153/75
f 74/158/77 76/157/77 79/156/76 80/155/76
f 80/155/76 79/156/76 75/160/78 73/159/78
f 9/16/79 69/141/69 71/142/69 10/15/79
f 12/18/80 75/147/72 69/148/72 9/17/80
f 11/20/81 73/159/78 75/160/78 12/19/81
f 10/22/82 71/153/75 73/154/75 11/21/82
f 74/158/86 15/130/85 16/129/84 76/157/83
f 72/152/90 14/132/89 15/131/88 74/151/87
f 70/140/94 13/126/93 14/125/92 72/139/91
f 76/146/98 16/128/97 13/127/96 70/145/95
f 24/34/1 20/133/1 84/162/1 88/161/1
f 20/133/1 19/134/1 83/163/1 84/162/1
f 19/134/1 23/33/1 87/164/1 83/163/1
f 23/33/1 24/34/1 88/161/1 87/164/1
f 21/39/12 22/40/12 86/166/12 85/165/12
f 22/40/12 18/135/12 82/167/12 86/166/12
f 18/135/12 17/136/12 81/168/12 82/167/12
f 17/136/12 21/39/12 85/165/12 81/168/12
f 86/166/99 82/167/99 90/170/99 94/169/99
f 82/167/100 81/168/100 89/171/100 90/170/100
f 81/168/101 85/165/101 93/172/101 89/171/101
f 85/165/102 86/166/102 94/169/102 93/172/102
f 84/162/103 83/163/103 91/3/103 92/4/103
f 83/163/104 87/164/104 95/2/104 91/3/104
f 87/164/105 88/161/105 96/1/105 95/2/105
f 88/161/106 84/162/106 92/4/106 96/1/106
f 90/170/12 89/171/12 93/172/12 94/169/12
f 5/13/12 6/8/12 2/5/12 1/12/12

usemtl default

